<svg width="1024" height="1024" viewBox="0 0 1024 1024" fill="none" xmlns="http://www.w3.org/2000/svg">
<rect width="1024" height="1024" fill="#FE0000"/>
<g clip-path="url(#clip0_1984_57717)">
<path d="M883.323 351.551C916.663 351.551 943.795 378.682 943.795 412.022V575.204C943.795 608.543 916.663 635.675 883.323 635.675H140.676C107.337 635.675 80.2051 608.543 80.2051 575.204V412.022C80.2051 378.682 107.337 351.551 140.676 351.551H883.323Z" fill="white"/>
<path d="M416.133 490.271C425.95 483.397 430.031 474.82 430.031 461.547V455.641C430.031 427.391 416.314 414.238 386.875 414.238H309.804V573.419H391.037C420.074 573.419 434.194 559.873 434.194 532.016V523.701C434.194 506.447 428.751 496.227 416.133 490.281V490.271ZM341.199 479.003V441.894H379.225C394.293 441.894 398.657 445.905 398.657 459.793V462.857C398.657 476.564 393.567 479.003 379.225 479.003H341.199ZM402.809 523.469V528.065C402.809 541.782 398.223 545.965 383.166 545.965H341.199V505.792H383.166C398.405 505.792 402.809 509.753 402.809 523.469Z" fill="black"/>
<path d="M543.828 414.229V530.253C543.828 543.97 539.293 548.152 524.397 548.152H501.206C486.149 548.152 481.563 543.97 481.563 530.253V414.229H450.178V534.405C450.178 562.121 464.369 575.586 493.556 575.586H532.066C546.832 575.586 557.474 572.27 564.61 565.457C571.746 558.634 575.213 548.485 575.213 534.405V414.229H543.828Z" fill="black"/>
<path d="M684.343 481.443L646.498 475.97C628.71 473.339 626.774 470.417 626.774 460.026V457.395C626.774 443.678 631.421 439.496 646.639 439.496H671.362C686.429 439.496 690.793 443.255 690.793 456.266V458.282H722.178V452.799C722.178 425.235 708.058 411.83 679.022 411.83H638.536C609.5 411.83 595.38 425.376 595.38 453.233V466.798C595.38 490.483 605.932 500.814 634.303 504.895L672.168 510.368C689.1 512.757 691.66 516.093 691.66 526.312V530.031C691.66 543.748 687.125 547.931 672.229 547.931H645.531C630.473 547.931 625.888 543.798 625.888 530.192V528.177H594.573L594.543 530.162C594.543 530.162 594.503 532.873 594.503 534.415C594.503 561.98 608.694 575.385 637.881 575.385H679.898C694.664 575.385 705.306 572.069 712.442 565.256C719.578 558.433 723.045 548.283 723.045 534.204V519.761C723.045 495.553 712.916 485.524 684.333 481.443H684.343Z" fill="black"/>
<path d="M835.32 414.229V467.967C835.32 481.684 830.784 485.867 815.888 485.867H792.698C777.64 485.867 773.055 481.684 773.055 467.967V414.229H741.67V472.12C741.67 499.836 755.861 513.301 785.048 513.301H823.558C827.821 513.301 831.732 513.018 835.33 512.454V530.041C835.33 543.758 830.795 547.941 815.898 547.941H792.758C777.701 547.941 773.115 543.808 773.115 530.202V528.187H741.66L741.73 534.425C741.73 561.99 755.921 575.394 785.108 575.394H823.568C838.333 575.394 848.976 572.079 856.112 565.266C863.247 558.442 866.714 548.293 866.714 534.214V414.229H835.33H835.32Z" fill="black"/>
<path d="M269.48 493.758L157.336 414.168V573.358L269.48 493.758Z" fill="black"/>
<path d="M883.324 326.547H140.676C93.3677 326.547 55.0088 364.906 55.0088 412.214V475.427V641.955C55.0088 689.263 93.3677 727.622 140.676 727.622H883.324C930.632 727.622 968.991 689.263 968.991 641.955V412.214C968.991 364.906 930.632 326.547 883.324 326.547ZM943.795 414.754V575.396C943.795 608.736 916.663 635.867 883.324 635.867H140.676C107.337 635.867 80.2051 608.736 80.2051 575.396V412.214C80.2051 378.875 107.337 351.743 140.676 351.743H883.324C916.663 351.743 943.795 378.875 943.795 412.214V414.754Z" fill="black"/>
</g>
<defs>
<clipPath id="clip0_1984_57717">
<rect width="913.982" height="401.086" fill="white" transform="translate(55.0088 326.547)"/>
</clipPath>
</defs>
</svg>
